# xmcd
#
# Track frame offsets: 
#        150
#        18697
#        39134
#        49494
#        68042
#
# Disc length: 1177 seconds
#
# Revision: 0
# Processed by: cddbd v1.5.2PL0 Copyright (c) Steve Scherf et al.
# Submitted via: ExactAudioCopyFreeDBPlugin 1.0
#
DISCID=3d049705
DTITLE=つばきファクトリー - 意識高い乙女のジレンマ／抱きしめられてみたい 【通常盤B】
DYEAR=2020
DGENRE=Hello! Project
TTITLE0=意識高い乙女のジレンマ
TTITLE1=抱きしめられてみたい
TTITLE2=Hair up 空へ！【Additional Track】
TTITLE3=意識高い乙女のジレンマ (Instrumental)
TTITLE4=抱きしめられてみたい (Instrumental)
EXTD=
EXTT0=
EXTT1=
EXTT2=
EXTT3=
EXTT4=
PLAYORDER=
